<svg width="48" height="47" viewBox="0 0 48 47" fill="none" xmlns="http://www.w3.org/2000/svg">
<path id="Vector" d="M46.9486 8.07112L39.4289 0.551361C39.2543 0.376571 39.0469 0.237908 38.8187 0.143302C38.5905 0.048695 38.3459 0 38.0988 0C37.8518 0 37.6071 0.048695 37.3789 0.143302C37.1507 0.237908 36.9434 0.376571 36.7688 0.551361L14.2095 23.1107C14.0349 23.2854 13.8966 23.4928 13.8022 23.721C13.7079 23.9492 13.6594 24.1938 13.6596 24.4407V31.9605C13.6596 32.4591 13.8577 32.9372 14.2102 33.2898C14.5628 33.6423 15.0409 33.8404 15.5395 33.8404H23.0593C23.3062 33.8406 23.5508 33.7921 23.779 33.6978C24.0072 33.6034 24.2146 33.4651 24.3893 33.2905L46.9486 10.7312C47.1234 10.5566 47.2621 10.3493 47.3567 10.1211C47.4513 9.89287 47.5 9.64824 47.5 9.40118C47.5 9.15413 47.4513 8.9095 47.3567 8.68128C47.2621 8.45306 47.1234 8.24572 46.9486 8.07112ZM22.2815 30.0805H17.4195V25.2185L32.459 10.179L37.321 15.041L22.2815 30.0805ZM39.9788 12.3832L35.1168 7.52124L38.0988 4.53919L42.9608 9.40118L39.9788 12.3832ZM45.6186 22.5608V43.2401C45.6186 44.2373 45.2225 45.1936 44.5173 45.8988C43.8122 46.6039 42.8559 47 41.8587 47H4.25988C3.2627 47 2.30636 46.6039 1.60124 45.8988C0.896129 45.1936 0.5 44.2373 0.5 43.2401V5.6413C0.5 4.64412 0.896129 3.68778 1.60124 2.98266C2.30636 2.27755 3.2627 1.88142 4.25988 1.88142H24.9392C25.4378 1.88142 25.916 2.07948 26.2686 2.43204C26.6211 2.7846 26.8192 3.26277 26.8192 3.76136C26.8192 4.25995 26.6211 4.73812 26.2686 5.09068C25.916 5.44324 25.4378 5.6413 24.9392 5.6413H4.25988V43.2401H41.8587V22.5608C41.8587 22.0622 42.0568 21.584 42.4093 21.2315C42.7619 20.8789 43.24 20.6808 43.7386 20.6808C44.2372 20.6808 44.7154 20.8789 45.068 21.2315C45.4205 21.584 45.6186 22.0622 45.6186 22.5608Z" fill="white"/>
</svg>
