<svg width="48" height="46" viewBox="0 0 48 46" fill="none" xmlns="http://www.w3.org/2000/svg">
<path id="Vector" d="M6.25513 28.75H2.41838C1.90959 28.75 1.42164 28.9519 1.06188 29.3114C0.702114 29.6708 0.5 30.1583 0.5 30.6667V44.0833C0.5 44.5917 0.702114 45.0792 1.06188 45.4386C1.42164 45.7981 1.90959 46 2.41838 46H6.25513C8.54466 46 10.7404 45.0913 12.3594 43.4738C13.9783 41.8563 14.8878 39.6625 14.8878 37.375C14.8878 35.0875 13.9783 32.8937 12.3594 31.2762C10.7404 29.6587 8.54466 28.75 6.25513 28.75ZM6.25513 42.1667H4.33675V32.5833H6.25513C7.52709 32.5833 8.74696 33.0882 9.64637 33.9868C10.5458 34.8854 11.0511 36.1042 11.0511 37.375C11.0511 38.6458 10.5458 39.8646 9.64637 40.7632C8.74696 41.6618 7.52709 42.1667 6.25513 42.1667ZM46.9079 40.9903C47.2755 41.3417 47.4883 41.8246 47.4995 42.3327C47.5108 42.8409 47.3195 43.3327 46.9679 43.7C46.2999 44.4184 45.4921 44.993 44.594 45.3885C43.696 45.784 42.7265 45.9921 41.7451 46C37.5127 46 34.0716 42.1307 34.0716 37.375C34.0716 32.6193 37.5127 28.75 41.7451 28.75C42.7265 28.7579 43.696 28.966 44.594 29.3615C45.4921 29.757 46.2999 30.3316 46.9679 31.05C47.3119 31.4187 47.4967 31.9079 47.4823 32.4117C47.4679 32.9156 47.2554 33.3934 46.8909 33.7419C46.5264 34.0903 46.0391 34.2813 45.5347 34.2734C45.0303 34.2655 44.5493 34.0595 44.1958 33.6998C43.8844 33.3574 43.5066 33.0819 43.0853 32.8899C42.664 32.698 42.208 32.5937 41.7451 32.5833C39.6301 32.5833 37.9083 34.7396 37.9083 37.375C37.9083 40.0104 39.6301 42.1667 41.7451 42.1667C42.208 42.1563 42.664 42.052 43.0853 41.8601C43.5066 41.6681 43.8844 41.3926 44.1958 41.0502C44.5475 40.683 45.0309 40.4704 45.5395 40.4591C46.0481 40.4479 46.5403 40.639 46.9079 40.9903ZM24.4797 28.75C20.2473 28.75 16.8062 32.6193 16.8062 37.375C16.8062 42.1307 20.2473 46 24.4797 46C28.7121 46 32.1532 42.1307 32.1532 37.375C32.1532 32.6193 28.7121 28.75 24.4797 28.75ZM24.4797 42.1667C22.3647 42.1667 20.643 40.0104 20.643 37.375C20.643 34.7396 22.3647 32.5833 24.4797 32.5833C26.5947 32.5833 28.3165 34.7396 28.3165 37.375C28.3165 40.0104 26.5947 42.1667 24.4797 42.1667ZM5.29594 23C5.80473 23 6.29267 22.7981 6.65244 22.4386C7.0122 22.0792 7.21432 21.5917 7.21432 21.0833V3.83333H28.3165V15.3333C28.3165 15.8417 28.5186 16.3292 28.8783 16.6886C29.2381 17.0481 29.7261 17.25 30.2348 17.25H41.7451V21.0833C41.7451 21.5917 41.9472 22.0792 42.307 22.4386C42.6667 22.7981 43.1547 23 43.6635 23C44.1723 23 44.6602 22.7981 45.02 22.4386C45.3797 22.0792 45.5818 21.5917 45.5818 21.0833V15.3333C45.582 15.0816 45.5326 14.8322 45.4363 14.5995C45.34 14.3669 45.1988 14.1554 45.0207 13.9773L31.5921 0.560626C31.4138 0.382693 31.2022 0.2416 30.9693 0.145406C30.7364 0.049212 30.4868 -0.00019739 30.2348 5.9263e-07H7.21432C6.19675 5.9263e-07 5.22085 0.403868 4.50132 1.12276C3.78179 1.84165 3.37756 2.81667 3.37756 3.83333V21.0833C3.37756 21.5917 3.57968 22.0792 3.93944 22.4386C4.29921 22.7981 4.78716 23 5.29594 23ZM32.1532 6.54302L39.033 13.4167H32.1532V6.54302Z" fill="white"/>
</svg>
