<svg width="220" height="50" viewBox="0 0 220 50" fill="none" xmlns="http://www.w3.org/2000/svg">
<g id="C.ORG Logo" clip-path="url(#clip0_3_6)">
<path id="Vector" d="M21.2828 16.5881C21.2828 14.7248 22.7874 13.2076 24.635 13.2076C25.5705 13.2076 26.4281 13.6006 26.9738 14.2296C27.6053 14.8506 27.9717 15.6997 27.9873 16.5881C27.9873 17.5079 27.6287 18.3884 26.9738 19.0252C26.3501 19.6541 25.4926 20.0472 24.635 20.0472C23.7541 20.0315 22.9121 19.662 22.2963 19.0252C21.6648 18.4041 21.2984 17.555 21.2828 16.6667V16.5881ZM29.8583 25.2359C29.8115 23.3726 31.2771 21.8239 33.1326 21.7767C33.1559 21.7767 33.1871 21.7767 33.2105 21.7767C35.0036 21.7767 36.5627 23.3491 36.5627 25.1572C36.5627 26.077 36.2041 26.9576 35.5493 27.5943C34.8477 28.2233 33.9901 28.6164 33.2105 28.6164C32.2984 28.6164 31.4253 28.2547 30.7938 27.5943C30.1545 26.9811 29.7881 26.1242 29.7803 25.2359H29.8583ZM16.3714 21.4623C14.5238 21.4623 13.0192 22.9796 13.0192 24.8428C13.0192 25.7862 13.409 26.6509 14.0326 27.2013C14.6485 27.8381 15.4905 28.2076 16.3714 28.2233C17.3069 28.2233 18.1645 27.9088 18.7881 27.2013C19.4118 26.5723 19.8016 25.7076 19.8016 24.8428C19.8016 22.9796 18.3048 21.4623 16.4494 21.4623C16.426 21.4623 16.3948 21.4623 16.3714 21.4623ZM24.9469 30.1101C23.0992 30.0629 21.5635 31.5409 21.5167 33.412C21.5167 33.4355 21.5167 33.467 21.5167 33.4906C21.5167 35.2987 23.0759 36.8711 24.8689 36.8711C26.7165 36.9182 28.2523 35.4403 28.2991 33.5692C28.2991 33.5142 28.2991 33.467 28.2991 33.412C28.2835 32.5236 27.9171 31.6745 27.2856 31.0535C26.6776 30.4088 25.8278 30.0393 24.9469 30.0315V30.1101Z" fill="#FB8936"/>
<path id="Vector_2" d="M24.7909 0C23.2317 0 21.7505 0.628931 20.6591 1.72956L1.7151 20.8333C0.615875 21.9418 0 23.4355 0 25C0 26.5723 0.623671 28.1447 1.7151 29.1667L9.35507 36.9497L13.0191 33.3333L4.83345 25L6.08079 23.8208L24.7909 4.95283L48.2566 28.5377L48.4125 28.695V28.5377C49.1999 27.5236 49.6364 26.2814 49.6598 25C49.6598 23.4277 49.0361 22.0126 47.9447 20.9119L28.9227 1.72956C27.8235 0.621069 26.3423 0 24.7909 0Z" fill="#FB8936"/>
<path id="Vector_3" d="M16.6832 36.9497L13.0192 40.566L20.8151 48.4277C21.8987 49.4418 23.3175 50 24.791 50C26.3501 50 27.9093 49.4497 28.9228 48.349L44.7484 32.3899L41.0844 28.695L24.791 45.1258L16.6832 36.9497ZM117.796 12.4214C116.502 12.3742 115.426 13.3962 115.379 14.7012C115.379 14.7248 115.379 14.7563 115.379 14.7799C115.379 16.2736 116.471 17.3742 117.796 17.3742C119.082 17.4607 120.205 16.4858 120.291 15.1808C120.291 15.0707 120.291 14.9607 120.291 14.8585C120.291 13.3648 119.277 12.4214 117.796 12.4214ZM152.176 19.4968C147.186 19.4968 143.912 22.4056 143.912 26.9654V31.2893C143.912 35.7704 147.03 38.6006 152.176 38.6006C157.321 38.6006 160.439 35.7704 160.439 31.2893V26.9654C160.439 22.4056 157.243 19.4968 152.176 19.4968ZM156.386 31.2893C156.386 33.6478 154.904 34.9843 152.176 34.9843C149.447 34.9843 147.966 33.6478 147.966 31.2107V26.9654C147.966 24.4497 149.447 23.0346 152.176 23.0346C154.904 23.0346 156.386 24.4497 156.386 26.9654V31.2893ZM166.286 33.1761C164.727 33.1761 163.714 34.1981 163.714 35.7704C163.714 37.3428 164.727 38.3648 166.286 38.3648C167.846 38.3648 168.859 37.2641 168.859 35.7704C168.859 34.1981 167.768 33.1761 166.286 33.1761ZM179.929 19.4182C174.94 19.4182 171.665 22.4056 171.665 26.9654V31.2893C171.665 35.7704 174.784 38.6006 180.007 38.6006C185.23 38.6006 188.271 35.7704 188.271 31.2893V26.9654C188.271 22.4056 184.996 19.4182 179.929 19.4182ZM184.217 31.2107C184.217 33.6478 182.658 34.9843 179.929 34.9843C177.201 34.9843 175.719 33.6478 175.719 31.2107V26.9654C175.719 24.3711 177.279 23.0346 179.929 23.0346C182.58 23.0346 184.217 24.3711 184.217 26.9654V31.2107Z" fill="white"/>
<path id="Vector_4" d="M220 20.9906C217.599 20 215.034 19.4654 212.438 19.4182C209.32 19.4182 204.096 20.5189 204.096 27.2799V30.1101C204.096 33.7264 206.123 37.5786 211.892 37.5786C213.436 37.6101 214.964 37.2642 216.336 36.5566C216.414 37.3428 216.102 39.7013 214.309 40.8805C212.672 41.9811 210.255 41.7453 207.059 40.2516L205.344 43.4748C207.916 45.283 212.594 46.0692 215.946 44.261C217.965 43.1604 219.369 41.195 219.766 38.9151V38.8365C219.922 38.0503 220 37.1069 220 36.1635V20.9906ZM216.102 33.0975C215.322 33.7264 213.919 34.1195 212.282 34.1195C209.553 34.1195 208.15 32.7044 208.15 30.1101V27.2799C208.15 24.3711 209.476 23.1132 212.516 23.1132C213.607 23.1132 215.167 23.1918 216.024 23.5063V33.0975H216.102Z" fill="white"/>
<path id="Vector_5" d="M201.914 23.1132V19.6541C199.185 19.1824 194.663 19.6541 191.623 21.2264V38.2076H195.599V23.8208C197.634 23.1604 199.777 22.9009 201.914 23.0346V23.1132ZM136.116 38.0503H140.17V27.673C140.17 22.3271 137.208 19.4969 131.751 19.4969C129.256 19.4969 126.371 20.1258 124.111 21.0692V38.2076H128.164V23.5063C129.022 23.1918 130.425 23.0346 131.751 23.0346C135.415 23.0346 136.116 25.7862 136.116 27.673V38.1289V38.0503ZM115.769 19.8899H119.823V38.1289H115.769V19.8899ZM112.651 32.783C112.651 28.8522 109.532 27.9088 106.258 27.2799C104.075 26.8082 102.36 26.4937 102.36 24.9214C102.36 23.5849 103.529 22.7987 105.556 22.7987C106.96 22.7987 108.675 23.2704 110.078 23.978L111.637 20.912C109.688 19.8899 107.661 19.3396 105.79 19.3396C102.438 19.3396 98.54 20.7547 98.54 24.8428C98.54 29.4811 103.763 30.3459 105.478 30.6604C107.116 30.9748 108.753 31.4465 108.753 32.9403C108.753 34.2767 107.505 35.1415 105.4 35.1415C103.483 35.0786 101.635 34.4182 100.099 33.2547L98.54 36.3994C100.544 37.8459 102.945 38.6164 105.4 38.6006C109.844 38.6006 112.573 36.3208 112.573 32.783H112.651Z" fill="white"/>
<path id="Vector_6" d="M94.5642 22.956C94.0418 21.9104 93.2311 21.0299 92.2254 20.4403C88.6393 18.3176 83.3381 19.4969 81.3891 20.5189L82.4805 23.6635C83.1042 23.3491 86.9242 22.0912 89.4189 23.2704L89.7307 23.3491L90.0425 23.5849L90.1205 23.6635L90.6662 24.1352C91.134 24.8428 91.4458 25.7075 91.4458 26.8082V27.1226H91.2899C90.1985 26.8868 88.9511 26.7296 87.7038 26.7296C82.7924 26.7296 79.9858 28.8522 79.9858 32.5472C79.9858 34.827 80.9993 38.6006 87.8597 38.6006C89.5748 38.6006 92.2254 38.3648 95.1878 37.2642H95.3437V26.7296C95.3437 25.9434 95.3437 25.3145 95.1878 24.6855C95.0319 24.0566 94.876 23.5063 94.5642 23.0346V22.956ZM91.4458 34.6698H91.3678C90.4323 34.9057 89.0291 35.1415 87.8597 35.1415C85.365 35.1415 83.9617 34.1981 83.9617 32.5472C83.9617 30.8962 85.2091 29.9528 87.8597 29.9528C88.9511 29.9528 90.4323 30.1101 91.3678 30.2673V34.5912L91.4458 34.6698Z" fill="white"/>
<path id="Vector_7" d="M63.1467 15.7233C61.1198 17.4528 60.1063 19.8899 60.1063 22.7987V29.2453C60.1063 32.2327 61.1198 34.7484 63.1467 36.3207C65.1503 37.8774 67.6294 38.6871 70.163 38.6006C72.6577 38.6006 75.1524 37.9717 77.2573 36.5566L75.4642 33.0189C75.0744 33.1761 71.3324 35.2201 67.9802 34.2767C65.6414 33.6478 64.3161 31.761 64.3161 29.1667V22.8773C64.3161 20.2044 65.6414 18.3176 67.9802 17.6887C71.2544 16.7453 74.9965 18.7107 75.4642 18.9465L77.1793 15.4088C75.0822 14.0802 72.6421 13.3962 70.163 13.4434C67.3565 13.4434 64.8618 14.2295 63.1467 15.7233Z" fill="white"/>
</g>
<defs>
<clipPath id="clip0_3_6">
<rect width="220" height="50" fill="white"/>
</clipPath>
</defs>
</svg>
