<svg width="147" height="33" viewBox="0 0 147 33" fill="none" xmlns="http://www.w3.org/2000/svg">
<g id="C.ORG Logo" clip-path="url(#clip0_4_107)">
<path id="Vector" d="M14.2208 10.9481C14.2208 9.7184 15.2261 8.71698 16.4607 8.71698C17.0858 8.71698 17.6588 8.97641 18.0234 9.39151C18.4453 9.80141 18.6902 10.3618 18.7006 10.9481C18.7006 11.5552 18.461 12.1363 18.0234 12.5566C17.6067 12.9717 17.0337 13.2311 16.4607 13.2311C15.872 13.2208 15.3095 12.9769 14.898 12.5566C14.476 12.1467 14.2312 11.5863 14.2208 11V10.9481ZM19.9508 16.6557C19.9195 15.4259 20.8988 14.4038 22.1386 14.3726C22.1542 14.3726 22.175 14.3726 22.1907 14.3726C23.3887 14.3726 24.4306 15.4104 24.4306 16.6038C24.4306 17.2108 24.1909 17.792 23.7534 18.2123C23.2846 18.6274 22.7116 18.8868 22.1907 18.8868C21.5812 18.8868 20.9978 18.6481 20.5758 18.2123C20.1487 17.8075 19.9039 17.242 19.8987 16.6557H19.9508ZM10.9391 14.1651C9.70451 14.1651 8.69916 15.1665 8.69916 16.3962C8.69916 17.0189 8.95961 17.5896 9.37634 17.9528C9.78785 18.3731 10.3504 18.617 10.9391 18.6274C11.5641 18.6274 12.1371 18.4198 12.5539 17.9528C12.9706 17.5377 13.231 16.967 13.231 16.3962C13.231 15.1665 12.2309 14.1651 10.9911 14.1651C10.9755 14.1651 10.9547 14.1651 10.9391 14.1651ZM16.669 19.8726C15.4345 19.8415 14.4083 20.817 14.377 22.0519C14.377 22.0675 14.377 22.0882 14.377 22.1038C14.377 23.2972 15.4189 24.3349 16.6169 24.3349C17.8515 24.366 18.8777 23.3906 18.9089 22.1557C18.9089 22.1193 18.9089 22.0882 18.9089 22.0519C18.8985 21.4656 18.6537 20.9052 18.2318 20.4953C17.8254 20.0698 17.2577 19.8259 16.669 19.8208V19.8726Z" fill="#FB8936"/>
<path id="Vector_2" d="M16.5648 0C15.523 0 14.5333 0.415094 13.804 1.14151L1.146 13.75C0.411517 14.4816 0 15.4675 0 16.5C0 17.5377 0.416726 18.5755 1.146 19.25L6.25089 24.3868L8.69915 22L3.22962 16.5L4.06308 15.7217L16.5648 3.26887L32.2442 18.8349L32.3483 18.9387V18.8349C32.8744 18.1656 33.1662 17.3458 33.1818 16.5C33.1818 15.4623 32.7651 14.5283 32.0358 13.8019L19.3257 1.14151C18.5912 0.409906 17.6014 0 16.5648 0Z" fill="#FB8936"/>
<path id="Vector_3" d="M11.1474 24.3868L8.69916 26.7736L13.9082 31.9623C14.6323 32.6316 15.5803 33 16.5649 33C17.6067 33 18.6485 32.6368 19.3257 31.9104L29.9001 21.3774L27.4518 18.9387L16.5649 29.783L11.1474 24.3868ZM78.7091 8.19812C77.8444 8.16699 77.1255 8.84151 77.0943 9.70284C77.0943 9.7184 77.0943 9.73916 77.0943 9.75472C77.0943 10.7406 77.8235 11.467 78.7091 11.467C79.5686 11.5241 80.3187 10.8807 80.376 10.0193C80.376 9.9467 80.376 9.87406 80.376 9.80661C80.376 8.82076 79.6988 8.19812 78.7091 8.19812ZM101.681 12.8679C98.3473 12.8679 96.1595 14.7877 96.1595 17.7972V20.6509C96.1595 23.6085 98.2431 25.4764 101.681 25.4764C105.119 25.4764 107.203 23.6085 107.203 20.6509V17.7972C107.203 14.7877 105.067 12.8679 101.681 12.8679ZM104.494 20.6509C104.494 22.2076 103.504 23.0896 101.681 23.0896C99.8579 23.0896 98.8682 22.2076 98.8682 20.5991V17.7972C98.8682 16.1368 99.8579 15.2028 101.681 15.2028C103.504 15.2028 104.494 16.1368 104.494 17.7972V20.6509ZM111.109 21.8962C110.068 21.8962 109.391 22.5708 109.391 23.6085C109.391 24.6462 110.068 25.3208 111.109 25.3208C112.151 25.3208 112.828 24.5943 112.828 23.6085C112.828 22.5708 112.099 21.8962 111.109 21.8962ZM120.225 12.816C116.892 12.816 114.704 14.7877 114.704 17.7972V20.6509C114.704 23.6085 116.787 25.4764 120.277 25.4764C123.768 25.4764 125.799 23.6085 125.799 20.6509V17.7972C125.799 14.7877 123.611 12.816 120.225 12.816ZM123.09 20.5991C123.09 22.2076 122.049 23.0896 120.225 23.0896C118.402 23.0896 117.412 22.2076 117.412 20.5991V17.7972C117.412 16.0849 118.454 15.2028 120.225 15.2028C121.996 15.2028 123.09 16.0849 123.09 17.7972V20.5991Z" fill="#3803CE"/>
<path id="Vector_4" d="M147 13.8538C145.396 13.2 143.682 12.8472 141.947 12.816C139.864 12.816 136.373 13.5425 136.373 18.0047V19.8726C136.373 22.2594 137.728 24.8019 141.583 24.8019C142.614 24.8226 143.635 24.5943 144.552 24.1274C144.604 24.6462 144.395 26.2028 143.197 26.9811C142.103 27.7075 140.489 27.5519 138.353 26.566L137.207 28.6934C138.926 29.8868 142.051 30.4057 144.291 29.2123C145.64 28.4859 146.578 27.1887 146.844 25.684V25.6321C146.948 25.1132 147 24.4906 147 23.8679V13.8538ZM144.395 21.8443C143.875 22.2594 142.937 22.5189 141.843 22.5189C140.02 22.5189 139.082 21.5849 139.082 19.8726V18.0047C139.082 16.0849 139.968 15.2547 141.999 15.2547C142.729 15.2547 143.77 15.3066 144.343 15.5142V21.8443H144.395Z" fill="#3803CE"/>
<path id="Vector_5" d="M134.915 15.2547V12.9717C133.092 12.6604 130.07 12.9717 128.039 14.0094V25.217H130.696V15.7217C132.055 15.2859 133.488 15.1146 134.915 15.2028V15.2547ZM90.9504 25.1132H93.6591V18.2642C93.6591 14.7359 91.6796 12.8679 88.0333 12.8679C86.3664 12.8679 84.439 13.283 82.9284 13.9057V25.217H85.6371V15.5142C86.2101 15.3066 87.1478 15.2028 88.0333 15.2028C90.4816 15.2028 90.9504 17.0189 90.9504 18.2642V25.1651V25.1132ZM77.3547 13.1274H80.0634V25.1651H77.3547V13.1274ZM75.2711 21.6368C75.2711 19.0425 73.1874 18.4198 70.9996 18.0047C69.5411 17.6934 68.3951 17.4859 68.3951 16.4481C68.3951 15.566 69.1765 15.0472 70.5308 15.0472C71.4684 15.0472 72.6144 15.3585 73.5521 15.8255L74.5939 13.8019C73.2916 13.1274 71.9373 12.7642 70.6871 12.7642C68.4472 12.7642 65.8427 13.6981 65.8427 16.3962C65.8427 19.4576 69.3327 20.0283 70.4787 20.2359C71.5726 20.4434 72.6665 20.7547 72.6665 21.7406C72.6665 22.6227 71.8331 23.1934 70.4266 23.1934C69.1452 23.1519 67.9106 22.716 66.8845 21.9481L65.8427 24.0236C67.1814 24.9783 68.7858 25.4868 70.4266 25.4764C73.3958 25.4764 75.219 23.9717 75.219 21.6368H75.2711Z" fill="#3803CE"/>
<path id="Vector_6" d="M63.186 15.1509C62.837 14.4608 62.2953 13.8797 61.6233 13.4906C59.2271 12.0896 55.685 12.8679 54.3827 13.5425L55.112 15.6179C55.5287 15.4104 58.0811 14.5802 59.748 15.3585L59.9564 15.4104L60.1648 15.566L60.2169 15.6179L60.5815 15.9292C60.894 16.3962 61.1024 16.967 61.1024 17.6934V17.9009H60.9982C60.269 17.7453 59.4355 17.6415 58.6021 17.6415C55.3203 17.6415 53.4451 19.0425 53.4451 21.4811C53.4451 22.9858 54.1222 25.4764 58.7062 25.4764C59.8522 25.4764 61.6233 25.3208 63.6028 24.5943H63.7069V17.6415C63.7069 17.1226 63.7069 16.7075 63.6028 16.2925C63.4986 15.8774 63.3944 15.5141 63.186 15.2028V15.1509ZM61.1024 22.8821H61.0503C60.4252 23.0377 59.4876 23.1934 58.7062 23.1934C57.0393 23.1934 56.1017 22.5708 56.1017 21.4811C56.1017 20.3915 56.9351 19.7689 58.7062 19.7689C59.4355 19.7689 60.4252 19.8726 61.0503 19.9764V22.8302L61.1024 22.8821Z" fill="#3803CE"/>
<path id="Vector_7" d="M42.1935 10.3774C40.8391 11.5189 40.1619 13.1274 40.1619 15.0472V19.3019C40.1619 21.2736 40.8391 22.934 42.1935 23.9717C43.5322 24.9991 45.1887 25.5335 46.8816 25.4764C48.5485 25.4764 50.2154 25.0613 51.6219 24.1274L50.4238 21.7925C50.1633 21.8962 47.663 23.2453 45.4231 22.6227C43.8604 22.2076 42.9748 20.9623 42.9748 19.25V15.0991C42.9748 13.3349 43.8604 12.0896 45.4231 11.6745C47.6109 11.0519 50.1113 12.3491 50.4238 12.5047L51.5698 10.1698C50.1686 9.29295 48.5381 8.84153 46.8816 8.87266C45.0064 8.87266 43.3395 9.39153 42.1935 10.3774Z" fill="#3803CE"/>
</g>
<defs>
<clipPath id="clip0_4_107">
<rect width="147" height="33" fill="white"/>
</clipPath>
</defs>
</svg>
